<?xml version="1.0" standalone="no"?>
<!DOCTYPE svg PUBLIC "-//W3C//DTD SVG 20010904//EN"
 "http://www.w3.org/TR/2001/REC-SVG-20010904/DTD/svg10.dtd">
<svg version="1.0" xmlns="http://www.w3.org/2000/svg"
 width="192.000000pt" height="192.000000pt" viewBox="0 0 192.000000 192.000000"
 preserveAspectRatio="xMidYMid meet">
<metadata>
Created by potrace 1.14, written by Peter Selinger 2001-2017
</metadata>
<g transform="translate(0.000000,192.000000) scale(0.100000,-0.100000)"
fill="#000000" stroke="none">
<path d="M130 1909 c-46 -18 -92 -61 -111 -103 -18 -39 -19 -81 -19 -844 0
-702 2 -807 15 -840 20 -47 50 -79 97 -103 35 -18 74 -19 842 -19 708 0 811 2
843 15 50 21 82 52 104 100 18 38 19 84 19 843 0 702 -2 807 -15 840 -20 47
-50 79 -97 103 -35 18 -73 19 -845 18 -510 0 -817 -4 -833 -10z"/>
</g>
</svg>
